<?xml version="1.0" encoding="UTF-8"?>
<svg xmlns="http://www.w3.org/2000/svg" xmlns:xlink="http://www.w3.org/1999/xlink" width="25px" height="25px" viewBox="0 0 25 25" version="1.1">
<g id="surface1">
<path style=" stroke:none;fill-rule:evenodd;fill:rgb(5.098039%,14.901961%,21.176471%);fill-opacity:1;" d="M 14.460938 17.292969 C 16.894531 17.007812 19.484375 16.121094 19.484375 11.914062 C 19.484375 10.71875 19.066406 9.742188 18.378906 8.988281 C 18.488281 8.703125 18.84375 7.617188 18.246094 6.113281 C 18.246094 6.113281 17.359375 5.824219 15.277344 7.21875 C 14.394531 6.976562 13.417969 6.820312 12.511719 6.820312 C 11.582031 6.820312 10.605469 6.976562 9.742188 7.21875 C 7.640625 5.824219 6.753906 6.113281 6.753906 6.113281 C 6.15625 7.617188 6.511719 8.703125 6.621094 8.988281 C 5.933594 9.742188 5.511719 10.71875 5.511719 11.914062 C 5.511719 16.121094 8.105469 17.007812 10.539062 17.292969 C 10.230469 17.558594 9.941406 18.070312 9.832031 18.777344 C 9.210938 19.042969 7.59375 19.550781 6.621094 17.871094 C 6.621094 17.871094 6.042969 16.828125 4.960938 16.761719 C 4.960938 16.761719 3.875 16.742188 4.871094 17.425781 C 4.871094 17.425781 5.601562 17.757812 6.089844 19.019531 C 6.089844 19.019531 6.753906 21.125 9.808594 20.460938 L 9.808594 22.34375 C 9.808594 22.628906 9.589844 22.960938 9.035156 22.875 C 4.695312 21.433594 1.574219 17.316406 1.574219 12.488281 C 1.574219 6.445312 6.464844 1.550781 12.511719 1.550781 C 18.535156 1.550781 23.449219 6.445312 23.429688 12.488281 C 23.429688 17.316406 20.304688 21.414062 15.964844 22.875 C 15.410156 22.984375 15.191406 22.652344 15.191406 22.34375 L 15.191406 19.308594 C 15.191406 18.289062 14.859375 17.625 14.460938 17.292969 Z M 25 12.511719 C 25 5.601562 19.398438 0 12.511719 0 C 5.601562 0 0 5.601562 0 12.511719 C 0 19.398438 5.601562 25 12.511719 25 C 19.398438 25 25 19.398438 25 12.511719 Z M 25 12.511719 "/>
</g>
</svg>
