<?xml version="1.0" encoding="UTF-8"?>
<svg xmlns="http://www.w3.org/2000/svg" xmlns:xlink="http://www.w3.org/1999/xlink" width="15px" height="15px" viewBox="0 0 15 15" version="1.1">
<g id="surface1">
<path style=" stroke:none;fill-rule:nonzero;fill:rgb(0%,0%,0%);fill-opacity:1;" d="M 7.5 11.71875 C 7.21875 11.71875 6.984375 11.625 6.75 11.4375 L 2.34375 7.078125 C 2.015625 6.75 1.875 6.328125 1.875 5.90625 C 1.875 5.4375 2.0625 5.0625 2.34375 4.734375 C 3 4.078125 4.03125 4.078125 4.6875 4.734375 L 7.40625 7.40625 C 7.453125 7.453125 7.5 7.453125 7.546875 7.40625 L 10.265625 4.734375 C 10.921875 4.078125 11.953125 4.078125 12.609375 4.734375 C 12.9375 5.0625 13.078125 5.484375 13.078125 5.90625 C 13.078125 6.375 12.890625 6.75 12.609375 7.078125 L 8.203125 11.4375 C 8.015625 11.625 7.78125 11.71875 7.5 11.71875 Z M 7.5 11.71875 "/>
</g>
</svg>
